HIERARCHY
ROOT hip
{
  OFFSET 5.70873 43.8894 -1.52928
  CHANNELS 6 Xposition Yposition Zposition Zrotation Xrotation Yrotation
  JOINT abdomen
  {
    OFFSET 0 5.99393 0.287273
    CHANNELS 6 Xposition Yposition Zposition Zrotation Xrotation Yrotation
    JOINT chest
    {
      OFFSET 0 6.65865 -0.856112
      CHANNELS 6 Xposition Yposition Zposition Zrotation Xrotation Yrotation
      JOINT neck
      {
        OFFSET 0 8.65624 -1.42685
        CHANNELS 6 Xposition Yposition Zposition Zrotation Xrotation Yrotation
        JOINT head
        {
          OFFSET 0 3.80999 -0.190247
          CHANNELS 6 Xposition Yposition Zposition Zrotation Xrotation Yrotation
          End Site
          {
            OFFSET 0 0 0
          }
        }
      }
      JOINT rCollar
      {
        OFFSET -1.4963 7.5744 -1.52136
        CHANNELS 6 Xposition Yposition Zposition Zrotation Xrotation Yrotation
        JOINT rShldr
        {
          OFFSET -5.47506 -0.905672 0.485692
          CHANNELS 6 Xposition Yposition Zposition Zrotation Xrotation Yrotation
          JOINT rForeArm
          {
            OFFSET -11.3069 -0.201091 0.618544
            CHANNELS 6 Xposition Yposition Zposition Zrotation Xrotation Yrotation
            JOINT rHand
            {
              OFFSET -9.61414 -0.254739 3.48553
              CHANNELS 6 Xposition Yposition Zposition Zrotation Xrotation Yrotation
              JOINT rThumb1
              {
                OFFSET 0.176263 -0.07068 1.26622
                CHANNELS 6 Xposition Yposition Zposition Zrotation Xrotation Yrotation
                JOINT rThumb2
                {
                  OFFSET -1.04683 -0.546484 1.82182
                  CHANNELS 6 Xposition Yposition Zposition Zrotation Xrotation Yrotation
                  JOINT rThumb3
                  {
                    OFFSET -0.993472 -0.621916 0.655506
                    CHANNELS 6 Xposition Yposition Zposition Zrotation Xrotation Yrotation
                    End Site
                    {
                      OFFSET -0.996134 -0.66263 0.644615
                    }
                  }
                }
              }
              JOINT rIndex1
              {
                OFFSET -2.64253 0.566363 2.4162
                CHANNELS 6 Xposition Yposition Zposition Zrotation Xrotation Yrotation
                JOINT rIndex2
                {
                  OFFSET -1.39394 -0.635138 0.899356
                  CHANNELS 6 Xposition Yposition Zposition Zrotation Xrotation Yrotation
                  JOINT rIndex3
                  {
                    OFFSET -0.622395 -0.856016 0.402182
                    CHANNELS 6 Xposition Yposition Zposition Zrotation Xrotation Yrotation
                    End Site
                    {
                      OFFSET -0.472476 -0.801802 0.34216
                    }
                  }
                }
              }
              JOINT rMid1
              {
                OFFSET -3.20814 0.514427 1.52547
                CHANNELS 6 Xposition Yposition Zposition Zrotation Xrotation Yrotation
                JOINT rMid2
                {
                  OFFSET -1.56545 -0.497974 0.68919
                  CHANNELS 6 Xposition Yposition Zposition Zrotation Xrotation Yrotation
                  JOINT rMid3
                  {
                    OFFSET -0.679943 -1.17582 0.444246
                    CHANNELS 6 Xposition Yposition Zposition Zrotation Xrotation Yrotation
                    End Site
                    {
                      OFFSET -0.343874 -0.941341 0.267611
                    }
                  }
                }
              }
              JOINT rRing1
              {
                OFFSET -3.47877 0.200518 0.597719
                CHANNELS 6 Xposition Yposition Zposition Zrotation Xrotation Yrotation
                JOINT rRing2
                {
                  OFFSET -1.28208 -0.53155 0.44672
                  CHANNELS 6 Xposition Yposition Zposition Zrotation Xrotation Yrotation
                  JOINT rRing3
                  {
                    OFFSET -0.710288 -0.970167 0.4032
                    CHANNELS 6 Xposition Yposition Zposition Zrotation Xrotation Yrotation
                    End Site
                    {
                      OFFSET -0.403228 -0.950952 0.378354
                    }
                  }
                }
              }
              JOINT rPinky1
              {
                OFFSET -3.42483 -0.278904 -0.240415
                CHANNELS 6 Xposition Yposition Zposition Zrotation Xrotation Yrotation
                JOINT rPinky2
                {
                  OFFSET -1.05787 -0.635999 0.156459
                  CHANNELS 6 Xposition Yposition Zposition Zrotation Xrotation Yrotation
                  JOINT rPinky3
                  {
                    OFFSET -0.42815 -0.754232 0.287187
                    CHANNELS 6 Xposition Yposition Zposition Zrotation Xrotation Yrotation
                    End Site
                    {
                      OFFSET -0.235717 -0.725605 0.279416
                    }
                  }
                }
              }
            }
          }
        }
      }
      JOINT lCollar
      {
        OFFSET 1.4963 7.5744 -1.52136
        CHANNELS 6 Xposition Yposition Zposition Zrotation Xrotation Yrotation
        JOINT lShldr
        {
          OFFSET 5.47506 -0.905672 0.485692
          CHANNELS 6 Xposition Yposition Zposition Zrotation Xrotation Yrotation
          JOINT lForeArm
          {
            OFFSET 11.3069 -0.201091 0.618544
            CHANNELS 6 Xposition Yposition Zposition Zrotation Xrotation Yrotation
            JOINT lHand
            {
              OFFSET 9.61414 -0.254739 3.48553
              CHANNELS 6 Xposition Yposition Zposition Zrotation Xrotation Yrotation
              JOINT lThumb1
              {
                OFFSET -0.176263 -0.07068 1.26622
                CHANNELS 6 Xposition Yposition Zposition Zrotation Xrotation Yrotation
                JOINT lThumb2
                {
                  OFFSET 1.04683 -0.546484 1.82182
                  CHANNELS 6 Xposition Yposition Zposition Zrotation Xrotation Yrotation
                  JOINT lThumb3
                  {
                    OFFSET 0.993472 -0.621916 0.655506
                    CHANNELS 6 Xposition Yposition Zposition Zrotation Xrotation Yrotation
                    End Site
                    {
                      OFFSET 0.996134 -0.66263 0.644615
                    }
                  }
                }
              }
              JOINT lIndex1
              {
                OFFSET 2.64253 0.566363 2.4162
                CHANNELS 6 Xposition Yposition Zposition Zrotation Xrotation Yrotation
                JOINT lIndex2
                {
                  OFFSET 1.39394 -0.635138 0.899356
                  CHANNELS 6 Xposition Yposition Zposition Zrotation Xrotation Yrotation
                  JOINT lIndex3
                  {
                    OFFSET 0.622395 -0.856016 0.402182
                    CHANNELS 6 Xposition Yposition Zposition Zrotation Xrotation Yrotation
                    End Site
                    {
                      OFFSET 0.472476 -0.801802 0.34216
                    }
                  }
                }
              }
              JOINT lMid1
              {
                OFFSET 3.20814 0.514427 1.52547
                CHANNELS 6 Xposition Yposition Zposition Zrotation Xrotation Yrotation
                JOINT lMid2
                {
                  OFFSET 1.56545 -0.497974 0.68919
                  CHANNELS 6 Xposition Yposition Zposition Zrotation Xrotation Yrotation
                  JOINT lMid3
                  {
                    OFFSET 0.679943 -1.17582 0.444246
                    CHANNELS 6 Xposition Yposition Zposition Zrotation Xrotation Yrotation
                    End Site
                    {
                      OFFSET 0.343874 -0.941341 0.267611
                    }
                  }
                }
              }
              JOINT lRing1
              {
                OFFSET 3.47877 0.200518 0.597719
                CHANNELS 6 Xposition Yposition Zposition Zrotation Xrotation Yrotation
                JOINT lRing2
                {
                  OFFSET 1.28208 -0.53155 0.44672
                  CHANNELS 6 Xposition Yposition Zposition Zrotation Xrotation Yrotation
                  JOINT lRing3
                  {
                    OFFSET 0.710288 -0.970167 0.4032
                    CHANNELS 6 Xposition Yposition Zposition Zrotation Xrotation Yrotation
                    End Site
                    {
                      OFFSET 0.403228 -0.950952 0.378354
                    }
                  }
                }
              }
              JOINT lPinky1
              {
                OFFSET 3.42483 -0.278904 -0.240415
                CHANNELS 6 Xposition Yposition Zposition Zrotation Xrotation Yrotation
                JOINT lPinky2
                {
                  OFFSET 1.05787 -0.635999 0.156459
                  CHANNELS 6 Xposition Yposition Zposition Zrotation Xrotation Yrotation
                  JOINT lPinky3
                  {
                    OFFSET 0.42815 -0.754232 0.287187
                    CHANNELS 6 Xposition Yposition Zposition Zrotation Xrotation Yrotation
                    End Site
                    {
                      OFFSET 0.235717 -0.725605 0.279416
                    }
                  }
                }
              }
            }
          }
        }
      }
    }
  }
  JOINT rThigh
  {
    OFFSET -4.17848 -1.02486 0.046356
    CHANNELS 6 Xposition Yposition Zposition Zrotation Xrotation Yrotation
    JOINT rShin
    {
      OFFSET 1.27155 -17.465 -0.237699
      CHANNELS 6 Xposition Yposition Zposition Zrotation Xrotation Yrotation
      JOINT rFoot
      {
        OFFSET 0.529163 -17.3815 -1.19582
        CHANNELS 6 Xposition Yposition Zposition Zrotation Xrotation Yrotation
        JOINT rToe
        {
          OFFSET -0.711591 -4.4863 4.0596
          CHANNELS 6 Xposition Yposition Zposition Zrotation Xrotation Yrotation
          End Site
          {
            OFFSET -0.869915 -1.10655 1.99006
          }
        }
      }
    }
  }
  JOINT lThigh
  {
    OFFSET 4.17848 -1.02486 0.046356
    CHANNELS 6 Xposition Yposition Zposition Zrotation Xrotation Yrotation
    JOINT lShin
    {
      OFFSET -1.27155 -17.465 -0.237699
      CHANNELS 6 Xposition Yposition Zposition Zrotation Xrotation Yrotation
      JOINT lFoot
      {
        OFFSET -0.529163 -17.3815 -1.19582
        CHANNELS 6 Xposition Yposition Zposition Zrotation Xrotation Yrotation
        JOINT lToe
        {
          OFFSET 0.711591 -4.4863 4.0596
          CHANNELS 6 Xposition Yposition Zposition Zrotation Xrotation Yrotation
          End Site
          {
            OFFSET 0.869915 -1.10655 1.99006
          }
        }
      }
    }
  }
}
MOTION
Frames:	4
Frame Time:	0.0333333
0.190936 30.0549 -3.95543 -3.33876 6.55384 -4.3242 0 5.99393 0.287273 3.79592 11.4716 -0.790302 -2.77556e-017 6.65865 -0.856112 8.00416 22.861 -2.44791 8.88178e-016 8.65624 -1.42685 -10.8507 -7.95065 -5.43074 8.88178e-016 3.80999 -0.190247 -7.19246 -3.3221 -3.34131 -1.4963 7.5744 -1.52136 -15.5864 -0.141537 4.07724 -5.47506 -0.905672 0.485692 30.7551 -16.4344 -38.6585 -11.3069 -0.201091 0.618544 27.9265 25.8975 104.637 -9.61414 -0.254739 3.48553 -72.0819 21.7175 45.6216 0.176263 -0.07068 1.26622 10.8261 -14.8983 -18.9302 -1.04683 -0.546484 1.82182 -2.91386 3.62393 -9.48849 -0.993472 -0.621916 0.655506 -4.78573 6.81022 -16.9206 -2.64253 0.566363 2.4162 30.3034 17.6784 -10.4075 -1.39394 -0.635138 0.899356 18.0133 4.27599 -3.33226 -0.622395 -0.856016 0.402182 24.1506 5.45227 -4.74006 -3.20814 0.514427 1.52547 13.9868 11.6107 -2.06817 -1.56545 -0.497974 0.68919 30.3544 7.65817 -6.43479 -0.679943 -1.17582 0.444246 5.85104 1.74744 -0.920834 -3.47877 0.200518 0.597719 16.8524 3.67129 -11.1532 -1.28208 -0.53155 0.44672 27.1283 7.74756 -6.82762 -0.710288 -0.970167 0.4032 4.0304 1.36472 -0.783357 -3.42483 -0.278904 -0.240415 18.6981 0.312506 -24.577 -1.05787 -0.635999 0.156459 26.2113 8.33212 -6.3603 -0.42815 -0.754232 0.287187 7.0993 2.56976 -1.35415 1.4963 7.5744 -1.52136 8.65826 -2.6597 4.54191 5.47506 -0.905672 0.485692 -64.7231 0.814193 -46.3565 11.3069 -0.201091 0.618544 -25.8909 26.0821 -111.777 9.61414 -0.254739 3.48553 -46.3359 -39.2203 -17.2781 -0.176263 -0.07068 1.26622 -8.45287 1.02237 4.9369 1.04683 -0.546484 1.82182 3.62872 1.30794 6.5549 0.993472 -0.621916 0.655506 7.44365 3.2231 13.7004 2.64253 0.566363 2.4162 5.77028 16.69 4.91014 1.39394 -0.635138 0.899356 10.1927 -3.80242 -3.79601 0.622395 -0.856016 0.402182 5.05913 -1.79214 -1.9572 3.20814 0.514427 1.52547 11.1491 6.61871 0.36432 1.56545 -0.497974 0.68919 -12.9343 4.22312 5.61988 0.679943 -1.17582 0.444246 -13.7521 4.44204 5.99932 3.47877 0.200518 0.597719 6.76702 -1.96124 5.1958 1.28208 -0.53155 0.44672 -10.0036 3.71971 4.82997 0.710288 -0.970167 0.4032 -11.7767 4.27714 5.73478 3.42483 -0.278904 -0.240415 8.45843 -1.92809 19.4059 1.05787 -0.635999 0.156459 -9.24594 3.78186 4.37805 0.42815 -0.754232 0.287187 -14.6455 5.59895 7.13297 -4.17848 -1.02486 0.046356 -103.046 -86.8756 -105.033 1.27155 -17.465 -0.237699 84.1314 76.4064 -76.8332 0.529163 -17.3815 -1.19582 -7.70085 4.90123 -10.6502 -0.711591 -4.4863 4.0596 0.791867 5.68081 -0.192377 4.17848 -1.02486 0.046356 -125.544 -84.0307 -141.751 -1.27155 -17.465 -0.237699 -9.48498 87.9253 15.8868 -0.529163 -17.3815 -1.19582 -8.53924 21.7816 1.05783 0.711591 -4.4863 4.0596 0.00343415 -0.034439 0.00177192 
0.190894 30.0549 -3.95534 -3.33766 6.55777 -4.32221 0 5.99393 0.287273 3.79687 11.4676 -0.784939 2.77556e-017 6.65865 -0.856112 8.00473 22.8532 -2.43669 -8.88178e-016 8.65624 -1.42685 -10.8441 -7.96861 -5.43077 0 3.80999 -0.190247 -7.18471 -3.33912 -3.34442 -1.4963 7.5744 -1.52136 -15.5864 -0.141578 4.07722 -5.47506 -0.905672 0.485692 30.7593 -16.4325 -38.687 -11.3069 -0.201091 0.618544 27.9242 25.896 104.648 -9.61414 -0.254739 3.48553 -72.081 21.722 45.6287 0.176263 -0.07068 1.26622 10.8261 -14.8983 -18.9302 -1.04683 -0.546484 1.82182 -2.91386 3.62392 -9.48845 -0.993472 -0.621916 0.655506 -4.78573 6.81023 -16.9207 -2.64253 0.566363 2.4162 30.3033 17.6784 -10.4075 -1.39394 -0.635138 0.899356 18.0133 4.27599 -3.33225 -0.622395 -0.856016 0.402182 24.1507 5.45229 -4.74007 -3.20814 0.514427 1.52547 13.9868 11.6107 -2.06818 -1.56545 -0.497974 0.68919 30.3544 7.65815 -6.4348 -0.679943 -1.17582 0.444246 5.85104 1.74746 -0.920825 -3.47877 0.200518 0.597719 16.8523 3.67129 -11.1531 -1.28208 -0.53155 0.44672 27.1283 7.74756 -6.82763 -0.710288 -0.970167 0.4032 4.0304 1.36471 -0.783364 -3.42483 -0.278904 -0.240415 18.6981 0.312507 -24.577 -1.05787 -0.635999 0.156459 26.2113 8.33212 -6.3603 -0.42815 -0.754232 0.287187 7.09931 2.56977 -1.35414 1.4963 7.5744 -1.52136 8.65901 -2.65914 4.54327 5.47506 -0.905672 0.485692 -64.7168 0.76201 -46.3289 11.3069 -0.201091 0.618544 -25.8818 26.0066 -111.814 9.61414 -0.254739 3.48553 -46.3359 -39.2202 -17.2781 -0.176263 -0.07068 1.26622 -8.45287 1.02238 4.93691 1.04683 -0.546484 1.82182 3.62873 1.30792 6.55489 0.993472 -0.621916 0.655506 7.44365 3.22308 13.7003 2.64253 0.566363 2.4162 5.77028 16.6901 4.91014 1.39394 -0.635138 0.899356 10.1921 -3.80218 -3.79581 0.622395 -0.856016 0.402182 5.0577 -1.7916 -1.95665 3.20814 0.514427 1.52547 11.1491 6.61869 0.364326 1.56545 -0.497974 0.68919 -12.9343 4.2231 5.61988 0.679943 -1.17582 0.444246 -13.752 4.44204 5.99932 3.47877 0.200518 0.597719 6.76701 -1.96125 5.19581 1.28208 -0.53155 0.44672 -10.0036 3.71972 4.82997 0.710288 -0.970167 0.4032 -11.7766 4.27711 5.73477 3.42483 -0.278904 -0.240415 8.45842 -1.92811 19.4059 1.05787 -0.635999 0.156459 -9.24594 3.78186 4.37805 0.42815 -0.754232 0.287187 -14.6455 5.59896 7.13297 -4.17848 -1.02486 0.046356 -102.671 -86.8777 -104.656 1.27155 -17.465 -0.237699 84.0362 76.4022 -76.7339 0.529163 -17.3815 -1.19582 -7.70009 4.90036 -10.6506 -0.711591 -4.4863 4.0596 0.791865 5.6808 -0.19238 4.17848 -1.02486 0.046356 -125.567 -84.0272 -141.773 -1.27155 -17.465 -0.237699 -9.48676 87.9238 15.8878 -0.529163 -17.3815 -1.19582 -8.53491 21.783 1.05555 0.711591 -4.4863 4.0596 0.00343385 -0.0344393 0.00177566 
0.190687 30.0549 -3.95522 -3.33636 6.56243 -4.31704 4.44089e-016 5.99393 0.287273 3.80014 11.461 -0.771556 0 6.65865 -0.856112 8.00825 22.8411 -2.40926 0 8.65624 -1.42685 -10.8379 -7.98547 -5.43058 -8.88178e-016 3.80999 -0.190247 -7.17691 -3.35444 -3.34703 -1.4963 7.5744 -1.52136 -15.5864 -0.141523 4.07724 -5.47506 -0.905672 0.485692 30.7606 -16.4272 -38.7576 -11.3069 -0.201091 0.618544 27.9186 25.8946 104.676 -9.61414 -0.254739 3.48553 -72.0816 21.7287 45.6391 0.176263 -0.07068 1.26622 10.8261 -14.8983 -18.9302 -1.04683 -0.546484 1.82182 -2.91387 3.62392 -9.48847 -0.993472 -0.621916 0.655506 -4.78572 6.81023 -16.9206 -2.64253 0.566363 2.4162 30.3033 17.6784 -10.4075 -1.39394 -0.635138 0.899356 18.0133 4.27599 -3.33225 -0.622395 -0.856016 0.402182 24.1506 5.45231 -4.74006 -3.20814 0.514427 1.52547 13.9868 11.6108 -2.06819 -1.56545 -0.497974 0.68919 30.3544 7.65816 -6.4348 -0.679943 -1.17582 0.444246 5.85105 1.74746 -0.92082 -3.47877 0.200518 0.597719 16.8524 3.67129 -11.1531 -1.28208 -0.53155 0.44672 27.1282 7.74757 -6.82763 -0.710288 -0.970167 0.4032 4.03039 1.36472 -0.783341 -3.42483 -0.278904 -0.240415 18.6981 0.312514 -24.577 -1.05787 -0.635999 0.156459 26.2113 8.33212 -6.36028 -0.42815 -0.754232 0.287187 7.09929 2.56976 -1.35415 1.4963 7.5744 -1.52136 8.66109 -2.65739 4.5469 5.47506 -0.905672 0.485692 -64.6838 0.700496 -46.3212 11.3069 -0.201091 0.618544 -25.876 25.9589 -111.837 9.61414 -0.254739 3.48553 -46.3359 -39.2202 -17.2781 -0.176263 -0.07068 1.26622 -8.45286 1.02236 4.93689 1.04683 -0.546484 1.82182 3.62874 1.30795 6.55491 0.993472 -0.621916 0.655506 7.44365 3.22309 13.7004 2.64253 0.566363 2.4162 5.77026 16.69 4.91013 1.39394 -0.635138 0.899356 10.1915 -3.80195 -3.79561 0.622395 -0.856016 0.402182 5.05625 -1.79108 -1.95611 3.20814 0.514427 1.52547 11.1491 6.61869 0.36432 1.56545 -0.497974 0.68919 -12.9343 4.22312 5.61988 0.679943 -1.17582 0.444246 -13.7521 4.44204 5.99933 3.47877 0.200518 0.597719 6.767 -1.96127 5.19581 1.28208 -0.53155 0.44672 -10.0036 3.7197 4.82997 0.710288 -0.970167 0.4032 -11.7767 4.27714 5.73479 3.42483 -0.278904 -0.240415 8.45841 -1.92811 19.4059 1.05787 -0.635999 0.156459 -9.24595 3.78184 4.37806 0.42815 -0.754232 0.287187 -14.6455 5.59896 7.13298 -4.17848 -1.02486 0.046356 -103.506 -86.8813 -105.487 1.27155 -17.465 -0.237699 84.1801 76.4085 -76.8847 0.529163 -17.3815 -1.19582 -7.69915 4.89967 -10.651 -0.711591 -4.4863 4.0596 0.791864 5.68081 -0.192369 4.17848 -1.02486 0.046356 -125.59 -84.0221 -141.793 -1.27155 -17.465 -0.237699 -9.4878 87.9222 15.8879 -0.529163 -17.3815 -1.19582 -8.53086 21.7843 1.05334 0.711591 -4.4863 4.0596 0.00343423 -0.034437 0.00177974 
0.190846 30.0549 -3.9551 -3.33493 6.56757 -4.3095 0 5.99393 0.287273 3.80523 11.4529 -0.752243 -5.55112e-017 6.65865 -0.856112 8.01407 22.8259 -2.36974 0 8.65624 -1.42685 -10.8312 -7.99929 -5.4301 8.88178e-016 3.80999 -0.190247 -7.16929 -3.36809 -3.3492 -1.4963 7.5744 -1.52136 -15.5864 -0.141526 4.07724 -5.47506 -0.905672 0.485692 30.7597 -16.4195 -38.8597 -11.3069 -0.201091 0.618544 27.9104 25.8932 104.717 -9.61414 -0.254739 3.48553 -72.0844 21.7372 45.6529 0.176263 -0.07068 1.26622 10.8261 -14.8984 -18.9301 -1.04683 -0.546484 1.82182 -2.91388 3.62393 -9.4885 -0.993472 -0.621916 0.655506 -4.78573 6.81025 -16.9206 -2.64253 0.566363 2.4162 30.3034 17.6784 -10.4075 -1.39394 -0.635138 0.899356 18.0133 4.27601 -3.33225 -0.622395 -0.856016 0.402182 24.1507 5.4523 -4.74007 -3.20814 0.514427 1.52547 13.9868 11.6108 -2.06819 -1.56545 -0.497974 0.68919 30.3544 7.65816 -6.4348 -0.679943 -1.17582 0.444246 5.85105 1.74747 -0.92082 -3.47877 0.200518 0.597719 16.8524 3.67129 -11.1531 -1.28208 -0.53155 0.44672 27.1283 7.7476 -6.82763 -0.710288 -0.970167 0.4032 4.03041 1.36472 -0.78335 -3.42483 -0.278904 -0.240415 18.6981 0.312526 -24.577 -1.05787 -0.635999 0.156459 26.2113 8.33213 -6.36029 -0.42815 -0.754232 0.287187 7.0993 2.56976 -1.35415 1.4963 7.5744 -1.52136 8.66413 -2.6549 4.55229 5.47506 -0.905672 0.485692 -64.6303 0.633027 -46.3292 11.3069 -0.201091 0.618544 -25.8731 25.9343 -111.849 9.61414 -0.254739 3.48553 -46.3359 -39.2203 -17.2781 -0.176263 -0.07068 1.26622 -8.45286 1.02234 4.93689 1.04683 -0.546484 1.82182 3.62872 1.30793 6.55491 0.993472 -0.621916 0.655506 7.44366 3.2231 13.7004 2.64253 0.566363 2.4162 5.77026 16.69 4.91014 1.39394 -0.635138 0.899356 10.191 -3.80169 -3.79543 0.622395 -0.856016 0.402182 5.0548 -1.79052 -1.95558 3.20814 0.514427 1.52547 11.1491 6.6187 0.364328 1.56545 -0.497974 0.68919 -12.9343 4.2231 5.61989 0.679943 -1.17582 0.444246 -13.752 4.44201 5.99935 3.47877 0.200518 0.597719 6.76698 -1.96128 5.19581 1.28208 -0.53155 0.44672 -10.0036 3.7197 4.82999 0.710288 -0.970167 0.4032 -11.7767 4.27711 5.73479 3.42483 -0.278904 -0.240415 8.45839 -1.92814 19.4059 1.05787 -0.635999 0.156459 -9.24595 3.78186 4.37806 0.42815 -0.754232 0.287187 -14.6455 5.59894 7.13298 -4.17848 -1.02486 0.046356 -102.84 -86.8605 -104.821 1.27155 -17.465 -0.237699 84.0592 76.4034 -76.7597 0.529163 -17.3815 -1.19582 -7.69591 4.89726 -10.653 -0.711591 -4.4863 4.0596 0.791858 5.68081 -0.19237 4.17848 -1.02486 0.046356 -125.609 -84.0151 -141.807 -1.27155 -17.465 -0.237699 -9.48719 87.9205 15.887 -0.529163 -17.3815 -1.19582 -8.52609 21.7859 1.05096 0.711591 -4.4863 4.0596 0.00343173 -0.0344506 0.00178832 
